<svg width="16" height="16" viewBox="0 0 16 16" fill="none" xmlns="http://www.w3.org/2000/svg">
<g id="Icons">
<path id="Icon" d="M13.0174 2.45996L9.4556 6.02175M9.4556 6.02175V3.05359M9.4556 6.02175H12.4238M3.51929 2.45996C2.86359 2.45996 2.33203 2.99152 2.33203 3.64722V4.24085C2.33203 9.15865 6.3187 13.1453 11.2365 13.1453H11.8301C12.4858 13.1453 13.0174 12.6138 13.0174 11.9581V10.0114C13.0174 9.75588 12.8539 9.52903 12.6115 9.44823L9.94404 8.55908C9.66378 8.46566 9.35747 8.59254 9.22535 8.85677L8.55536 10.1968C7.1041 9.54242 5.93493 8.37325 5.2806 6.92199L6.62058 6.252C6.88481 6.11988 7.01169 5.81357 6.91827 5.53331L6.02912 2.86587C5.94832 2.62346 5.72147 2.45996 5.46595 2.45996H3.51929Z" stroke="#C4942D" stroke-width="1.15947" stroke-linecap="round" stroke-linejoin="round"/>
</g>
</svg>
